<?xml version="1.0" encoding="UTF-8" standalone="no"?>
<svg
   xmlns:dc="http://purl.org/dc/elements/1.1/"
   xmlns:cc="http://creativecommons.org/ns#"
   xmlns:rdf="http://www.w3.org/1999/02/22-rdf-syntax-ns#"
   xmlns:svg="http://www.w3.org/2000/svg"
   xmlns="http://www.w3.org/2000/svg"
   xmlns:sodipodi="http://sodipodi.sourceforge.net/DTD/sodipodi-0.dtd"
   xmlns:inkscape="http://www.inkscape.org/namespaces/inkscape"
   viewBox="0 0 48.900002 32.200001"
   version="1.1"
   id="svg30"
   sodipodi:docname="couchdb-logo.svg"
   width="48.900002"
   height="32.200001"
   inkscape:version="0.92.2 (5c3e80d, 2017-08-06)">
  <metadata
     id="metadata36">
    <rdf:RDF>
      <cc:Work
         rdf:about="">
        <dc:format>image/svg+xml</dc:format>
        <dc:type
           rdf:resource="http://purl.org/dc/dcmitype/StillImage" />
        <dc:title></dc:title>
      </cc:Work>
    </rdf:RDF>
  </metadata>
  <defs
     id="defs34" />
  <sodipodi:namedview
     pagecolor="#ffffff"
     bordercolor="#666666"
     borderopacity="1"
     objecttolerance="10"
     gridtolerance="10"
     guidetolerance="10"
     inkscape:pageopacity="0"
     inkscape:pageshadow="2"
     inkscape:window-width="1323"
     inkscape:window-height="726"
     id="namedview32"
     showgrid="false"
     fit-margin-top="0"
     fit-margin-left="0"
     fit-margin-right="0"
     fit-margin-bottom="0"
     inkscape:zoom="4.3560803"
     inkscape:cx="93.5"
     inkscape:cy="8.2"
     inkscape:window-x="0"
     inkscape:window-y="0"
     inkscape:window-maximized="0"
     inkscape:current-layer="svg30" />
  <style
     id="style2">.a{fill:#444;}.b{fill:#777;}</style>
  <path
     d="m 39.7,21.4 c 0,2 -1.1,3 -3.1,3.1 v 0 H 12.2 v 0 c -2,0 -3.1,-1 -3.1,-3.1 0,-2 1.1,-3 3.1,-3.1 v 0 h 24.5 v 0 c 2,0.1 3,1.1 3,3.1 z m -3,4.6 v 0 H 12.2 v 0 c -2,0 -3.1,1 -3.1,3.1 0,2 1.1,3 3.1,3.1 v 0 h 24.5 v 0 c 2,0 3.1,-1 3.1,-3.1 C 39.7,27 38.7,26 36.7,26 Z M 44.3,9.1 v 0 c -2,0 -3.1,1 -3.1,3 V 29 c 0,2 1.1,3 3.1,3.1 v 0 c 3,-0.1 4.6,-3.1 4.6,-9.2 v -7.6 c 0,-4.1 -1.6,-6.1 -4.6,-6.2 z m -39.7,0 v 0 C 1.6,9.2 0,11.2 0,15.3 v 7.6 C 0,29 1.6,32 4.6,32.1 v 0 c 2,0 3.1,-1 3.1,-3.1 V 12.2 C 7.6,10.2 6.6,9.2 4.6,9.1 Z M 44.3,7.6 C 44.3,2.5 41.6,0.1 36.7,0 V 0 H 12.2 V 0 C 7.2,0.1 4.6,2.6 4.6,7.6 v 0 c 3,0 4.6,1.6 4.6,4.6 0,3 1.6,4.6 4.6,4.6 v 0 h 21.4 v 0 c 3,0 4.6,-1.6 4.6,-4.6 -0.1,-3.1 1.6,-4.5 4.5,-4.6 z"
     id="path28"
     inkscape:connector-curvature="0"
     style="fill:#e42528" />
</svg>
