<?xml version="1.0" encoding="UTF-8" standalone="no"?>
<svg
   xmlns:dc="http://purl.org/dc/elements/1.1/"
   xmlns:cc="http://creativecommons.org/ns#"
   xmlns:rdf="http://www.w3.org/1999/02/22-rdf-syntax-ns#"
   xmlns:svg="http://www.w3.org/2000/svg"
   xmlns="http://www.w3.org/2000/svg"
   xmlns:sodipodi="http://sodipodi.sourceforge.net/DTD/sodipodi-0.dtd"
   xmlns:inkscape="http://www.inkscape.org/namespaces/inkscape"
   version="1.0"
   width="359.58853pt"
   height="315.02887pt"
   viewBox="0 0 359.58853 315.02887"
   preserveAspectRatio="xMidYMid meet"
   id="svg16"
   sodipodi:docname="logo-gopherjs.svg"
   inkscape:version="0.92.2 (5c3e80d, 2017-08-06)">
  <defs
     id="defs20" />
  <sodipodi:namedview
     pagecolor="#ffffff"
     bordercolor="#666666"
     borderopacity="1"
     objecttolerance="10"
     gridtolerance="10"
     guidetolerance="10"
     inkscape:pageopacity="0"
     inkscape:pageshadow="2"
     inkscape:window-width="1600"
     inkscape:window-height="844"
     id="namedview18"
     showgrid="false"
     inkscape:pagecheckerboard="true"
     inkscape:zoom="0.76956522"
     inkscape:cx="238.2299"
     inkscape:cy="82.358923"
     inkscape:window-x="0"
     inkscape:window-y="0"
     inkscape:window-maximized="1"
     inkscape:current-layer="svg16"
     fit-margin-top="0"
     fit-margin-left="0"
     fit-margin-right="0"
     fit-margin-bottom="0" />
  <metadata
     id="metadata2">
Created by potrace 1.15, written by Peter Selinger 2001-2017
<rdf:RDF>
  <cc:Work
     rdf:about="">
    <dc:format>image/svg+xml</dc:format>
    <dc:type
       rdf:resource="http://purl.org/dc/dcmitype/StillImage" />
    <dc:title></dc:title>
  </cc:Work>
</rdf:RDF>
</metadata>
  <g
     transform="matrix(0.1,0,0,-0.1,-50.353,381.47664)"
     id="g14"
     style="fill:#000000;stroke:none">
    <path
       d="m 2098,3809 c -48,-4 -91,-10 -97,-13 -10,-7 -153,-34 -186,-35 -11,-1 -32,-1 -47,-1 -16,0 -28,-5 -28,-10 0,-6 -4,-8 -10,-5 -5,3 -10,2 -10,-4 0,-11 -86,-61 -106,-61 -8,0 -14,-4 -14,-10 0,-5 -9,-10 -21,-10 -11,0 -18,4 -14,9 3,5 -20,13 -50,16 -64,8 -202,-2 -211,-16 -3,-5 -9,-7 -13,-4 -5,2 -20,-17 -35,-44 -22,-41 -26,-61 -26,-127 1,-72 3,-83 30,-118 16,-21 27,-42 25,-46 -3,-5 2,-11 11,-14 16,-6 11,-45 -8,-57 -5,-3 -8,-10 -7,-15 4,-19 -14,-94 -23,-94 -5,0 -6,-4 -3,-10 3,-5 -1,-22 -8,-37 -8,-15 -20,-59 -26,-98 -7,-38 -17,-75 -23,-82 -6,-7 -8,-18 -5,-25 2,-7 -2,-62 -9,-123 -7,-60 -13,-146 -13,-191 -1,-44 -4,-122 -7,-172 -6,-84 -9,-91 -33,-104 -14,-7 -35,-21 -45,-30 -18,-17 -32,-22 -39,-15 -5,4 -35,-28 -31,-34 4,-7 -56,-67 -71,-71 -5,-2 -9,-6 -7,-10 1,-5 -2,-8 -6,-8 -4,0 -9,-37 -10,-83 l -2,-82 31,-19 c 44,-26 109,-15 177,30 30,19 55,34 57,32 5,-6 13,-248 7,-248 -3,0 -19,11 -36,23 -32,25 -50,31 -149,50 -48,9 -85,8 -199,-6 l -140,-18 -50,-50 c -27,-27 -47,-49 -44,-49 3,0 -3,-24 -15,-53 -43,-108 -61,-231 -54,-367 3,-69 11,-154 17,-190 6,-36 12,-77 12,-92 1,-16 4,-28 7,-28 3,0 11,-19 18,-42 14,-47 59,-111 71,-103 5,3 15,-3 22,-13 18,-25 132,-85 154,-81 5,1 11,1 14,0 3,-1 24,-3 48,-5 24,-1 48,-9 53,-17 5,-8 9,-11 9,-8 0,4 17,3 38,-3 66,-17 126,-29 167,-33 22,-2 72,-7 110,-11 39,-4 162,-8 275,-9 200,-1 201,-1 45,4 -141,5 -153,7 -100,14 60,9 151,34 170,47 6,4 45,15 87,24 113,25 223,62 313,105 44,21 93,43 108,49 15,7 49,32 75,56 26,24 97,78 159,119 231,156 337,248 453,392 48,59 122,134 180,181 19,16 37,33 39,38 2,4 13,16 24,25 11,9 44,36 73,61 29,25 72,61 95,80 23,19 57,49 75,67 19,18 55,44 81,59 27,15 69,40 94,56 96,60 284,81 384,43 61,-23 146,-95 161,-137 17,-49 -21,-157 -83,-231 -13,-16 -23,-33 -23,-39 0,-5 -20,-34 -45,-63 -44,-52 -46,-52 -87,-45 -128,24 -242,-106 -242,-275 0,-54 21,-118 35,-109 5,3 9,1 9,-4 0,-13 115,-81 145,-85 34,-4 37,-10 37,-57 -1,-61 -15,-73 -60,-54 -20,8 -39,18 -42,22 -3,4 -11,8 -18,10 -28,5 -62,35 -62,53 0,33 -28,21 -60,-26 -17,-25 -35,-45 -40,-45 -6,0 -10,-8 -10,-18 0,-10 -9,-28 -20,-40 -11,-12 -20,-26 -20,-32 0,-16 47,-12 54,5 5,14 9,14 35,0 17,-8 34,-21 38,-27 20,-32 84,-52 159,-50 76,2 101,14 117,56 4,10 16,20 27,23 11,3 20,11 20,17 0,7 9,21 19,33 27,29 27,156 0,194 -10,14 -16,29 -14,33 3,3 2,4 -2,1 -3,-3 -20,4 -37,14 -17,10 -57,25 -89,32 -65,14 -87,35 -87,85 0,24 9,40 40,68 48,43 75,45 118,10 35,-29 39,-44 20,-74 -7,-10 -10,-22 -6,-25 14,-14 57,10 110,61 84,79 90,130 11,102 -35,-12 -48,-7 -43,17 0,4 -15,19 -34,34 l -35,28 34,41 c 19,22 35,43 35,47 0,4 20,33 45,65 25,32 45,64 45,72 0,13 50,119 61,128 16,14 8,130 -14,205 -27,87 -48,144 -59,160 -43,59 -71,82 -117,95 -28,7 -51,16 -51,20 0,4 -45,8 -99,9 -79,2 -115,-2 -173,-20 -40,-12 -84,-21 -97,-21 -14,0 -31,-7 -39,-14 -7,-8 -20,-14 -28,-14 -8,0 -14,-4 -14,-9 0,-10 -65,-51 -80,-51 -18,0 -98,-65 -103,-84 -4,-11 -10,-15 -19,-10 -7,4 -10,4 -6,-1 4,-4 -5,-18 -21,-29 -15,-12 -28,-25 -29,-31 0,-5 -8,-14 -17,-20 -26,-15 -72,-62 -79,-80 -3,-9 -10,-14 -15,-10 -5,3 -12,-4 -16,-15 -3,-11 -17,-28 -30,-38 -13,-11 -23,-21 -20,-23 2,-2 -16,-27 -40,-54 l -44,-50 v 86 c 0,117 15,253 28,257 6,2 9,8 6,12 -3,5 -3,21 1,34 5,21 10,25 30,20 13,-4 43,2 69,12 l 45,19 -1,103 c -1,56 -5,102 -8,102 -4,0 -12,14 -18,30 -6,17 -19,30 -28,30 -14,0 -16,8 -12,48 27,248 29,332 13,484 -10,84 -20,163 -23,175 -4,17 3,26 36,45 22,13 41,29 41,37 0,8 3,12 6,8 3,-3 18,8 33,25 20,25 27,46 31,95 3,35 3,63 -1,63 -3,0 -14,20 -23,45 -10,25 -22,43 -27,39 -5,-3 -12,1 -15,9 -2,7 -10,14 -17,15 -7,1 -41,8 -76,16 -43,10 -71,12 -88,5 -34,-13 -33,-13 -82,31 -24,21 -69,49 -100,61 -31,12 -60,26 -65,31 -6,4 -25,8 -43,8 -18,0 -65,9 -103,19 -63,18 -107,24 -260,35 -25,2 -84,0 -132,-5 z m 377,-52 c 174,-40 199,-47 215,-61 8,-8 26,-17 40,-21 14,-4 49,-33 78,-63 90,-93 135,-234 152,-472 6,-80 16,-176 22,-214 9,-52 9,-85 0,-137 -7,-38 -12,-93 -13,-122 0,-80 -13,-133 -30,-128 -8,2 -51,5 -96,7 -60,2 -85,-1 -93,-11 -10,-12 4,-14 87,-13 131,1 165,-15 188,-89 6,-21 5,-22 -25,-11 -43,15 -65,-5 -26,-23 53,-24 76,-117 36,-139 -12,-6 -40,-10 -63,-8 -34,2 -44,8 -54,29 -15,31 -48,55 -104,74 -46,16 -99,10 -99,-12 0,-11 5,-13 18,-7 32,14 96,4 120,-19 58,-54 65,-73 53,-140 -6,-34 -15,-129 -20,-210 -5,-86 -13,-153 -20,-160 -6,-6 -11,-18 -11,-27 0,-18 -91,-107 -189,-185 -35,-27 -78,-64 -95,-81 -18,-18 -46,-39 -63,-48 -40,-20 -157,-100 -208,-141 -22,-18 -51,-36 -65,-40 -14,-4 -32,-13 -40,-20 -28,-24 -120,-65 -202,-91 -45,-15 -106,-37 -134,-50 -29,-13 -58,-24 -65,-24 -7,0 -39,-13 -73,-29 -71,-33 -136,-56 -189,-65 -35,-7 -38,-5 -55,26 -9,18 -52,67 -94,108 -43,42 -78,81 -78,87 0,7 -5,24 -12,40 -6,15 -11,31 -10,35 1,4 -3,31 -9,60 -13,68 -30,702 -19,706 5,2 25,16 45,32 27,21 44,28 63,24 32,-5 58,9 47,26 -10,16 -77,5 -113,-18 -15,-9 -64,-47 -109,-83 -92,-74 -145,-94 -168,-62 -9,12 -10,25 -4,41 21,56 -11,45 -36,-12 l -13,-31 -1,32 c -2,84 64,180 174,249 63,40 128,50 147,22 7,-9 8,-7 6,7 -2,14 -15,23 -42,30 l -39,9 6,201 c 7,220 22,332 82,595 38,167 187,400 320,499 111,82 197,111 450,151 100,16 312,5 430,-23 z m -932,-105 c 20,-21 12,-36 -39,-70 -22,-15 -41,-20 -60,-16 -50,9 -69,-15 -67,-85 2,-50 -2,-67 -24,-101 -15,-22 -30,-40 -35,-40 -4,0 -20,19 -35,43 -35,56 -42,128 -17,197 24,68 65,88 180,89 66,1 84,-2 97,-17 z m 1460,-63 c 82,-22 128,-166 76,-233 -23,-29 -97,-71 -107,-61 -12,12 -6,109 8,143 14,31 14,35 -4,48 -11,8 -29,14 -40,14 -28,0 -75,78 -55,91 19,12 76,11 122,-2 z m 802,-1233 c 100,-19 115,-27 164,-86 45,-53 76,-132 87,-217 7,-63 -2,-69 -48,-27 -98,89 -248,125 -373,89 -33,-9 -86,-24 -117,-32 -35,-10 -73,-29 -97,-49 -21,-19 -44,-34 -49,-34 -6,0 -35,-20 -65,-45 -31,-25 -58,-45 -61,-45 -3,0 -29,-24 -58,-53 -29,-29 -96,-91 -147,-137 -126,-113 -188,-175 -251,-251 -112,-137 -293,-291 -450,-384 -28,-16 -87,-58 -131,-92 -43,-34 -89,-65 -102,-69 -12,-3 -29,-13 -38,-21 -32,-27 -95,-55 -154,-68 -33,-7 -98,-26 -145,-43 -114,-41 -253,-72 -369,-83 -104,-10 -282,-4 -346,13 -22,5 -78,18 -125,28 -142,31 -167,39 -207,62 -105,61 -142,113 -160,228 -7,47 -13,89 -13,94 0,5 26,-20 57,-54 32,-34 82,-78 113,-98 61,-39 229,-92 294,-92 22,-1 70,-7 106,-15 60,-13 69,-12 120,7 30,11 83,28 116,38 34,10 92,32 129,49 37,17 97,39 133,48 37,9 72,20 79,25 12,10 61,29 208,83 155,57 248,96 289,124 23,14 53,31 67,37 14,6 41,25 60,41 35,30 162,114 189,125 8,3 56,42 105,85 50,43 107,89 127,101 20,13 39,31 43,41 3,9 23,28 45,40 22,12 45,32 51,44 7,12 27,40 46,62 185,220 358,392 428,428 23,12 65,34 93,49 56,31 172,59 267,66 11,1 52,-4 90,-12 z M 1103,1784 c 102,-66 91,-40 93,-223 1,-89 7,-174 12,-189 6,-15 13,-48 16,-75 6,-52 27,-100 59,-135 26,-28 17,-48 -31,-71 -17,-9 -34,-23 -37,-31 -3,-8 -25,-36 -49,-63 -25,-26 -48,-56 -51,-67 -6,-19 -13,-20 -93,-14 -121,9 -239,41 -280,76 -9,9 -27,19 -40,22 -12,4 -27,17 -34,29 -6,12 -28,42 -48,67 -58,70 -75,133 -74,275 0,115 21,250 46,300 16,31 80,96 108,108 36,15 159,26 268,22 82,-3 99,-7 135,-31 z m 294,-801 c -24,-22 -62,-42 -112,-58 -92,-30 -98,-31 -90,-5 4,11 2,20 -4,20 -25,0 -8,35 35,75 112,105 109,104 163,48 l 44,-46 z"
       id="path4"
       inkscape:connector-curvature="0" />
    <path
       d="m 2410,3621 c -43,-23 -66,-45 -105,-102 l -50,-72 v -84 c 0,-92 -6,-82 85,-156 46,-38 85,-49 148,-44 79,6 182,55 212,101 10,17 29,43 42,59 17,21 22,40 22,90 1,73 -15,117 -52,144 -53,38 -152,82 -199,88 -41,5 -56,2 -103,-24 z m 180,-24 c 78,-26 87,-32 123,-75 23,-29 27,-43 27,-95 0,-69 -13,-102 -30,-77 -5,8 -10,23 -10,32 0,36 -98,86 -147,74 -29,-8 -75,-58 -85,-95 -6,-19 -1,-35 17,-63 36,-55 67,-72 117,-65 62,8 26,-9 -59,-30 -69,-16 -76,-16 -128,1 -34,10 -69,31 -96,57 l -41,40 4,68 c 2,46 10,76 23,96 11,15 29,44 40,64 23,42 104,91 150,90 17,0 59,-10 95,-22 z"
       id="path6"
       inkscape:connector-curvature="0" />
    <path
       d="m 1738,3616 c -69,-19 -95,-40 -128,-107 -60,-117 -32,-241 65,-296 58,-33 164,-63 224,-63 54,0 122,27 151,59 62,70 75,154 38,253 -20,56 -74,118 -103,118 -5,0 -32,11 -60,25 -56,27 -113,31 -187,11 z m 192,-37 c 80,-29 137,-83 146,-138 l 7,-44 -24,16 c -29,21 -81,22 -118,3 -57,-30 -77,-96 -46,-155 17,-33 32,-41 83,-41 l 37,-1 -35,-19 c -50,-27 -122,-25 -216,6 -84,28 -116,50 -139,98 -20,39 -18,131 3,181 33,79 60,101 141,115 56,9 89,5 161,-21 z"
       id="path8"
       inkscape:connector-curvature="0" />
    <path
       d="m 2093,3109 c -44,-13 -67,-50 -60,-95 l 6,-36 -48,7 c -38,5 -52,3 -70,-12 -20,-16 -23,-29 -25,-90 -2,-95 16,-117 90,-111 l 52,4 6,-43 c 3,-24 9,-64 12,-89 9,-58 32,-75 98,-68 26,2 56,9 66,14 10,6 31,10 47,10 68,0 73,6 73,81 v 69 h 31 c 45,0 65,14 83,60 21,54 20,82 -5,124 -23,40 -46,50 -105,47 l -42,-1 8,36 c 11,46 -2,79 -32,88 -45,12 -153,15 -185,5 z m 320,-168 c 18,-14 24,-114 9,-138 -15,-23 -58,-24 -123,-3 -54,19 -80,21 -167,18 -59,-3 -108,-10 -114,-16 -7,-7 -26,-12 -42,-12 -26,0 -34,7 -50,40 -18,38 -18,41 -2,85 l 18,45 227,-2 c 176,-2 232,-6 244,-17 z m -238,-218 c 13,-125 16,-118 -34,-121 -24,-2 -47,0 -52,5 -4,4 -11,47 -15,96 l -7,87 h 51 50 z m 102,61 c 24,-6 43,-54 43,-105 0,-40 -37,-65 -87,-60 -14,1 -25,51 -27,122 -1,46 1,49 24,49 14,0 35,-3 47,-6 z"
       id="path10"
       inkscape:connector-curvature="0" />
    <path
       d="m 3405,1576 c -15,-23 -18,-24 -190,-25 -143,-1 -181,1 -206,15 -69,35 -105,-11 -76,-95 9,-25 19,-63 23,-83 3,-21 10,-38 15,-38 5,0 23,16 40,35 21,24 40,35 58,35 27,0 28,-1 50,-127 12,-71 23,-162 24,-203 l 2,-75 -42,-3 c -36,-3 -46,1 -77,33 -44,44 -45,60 -6,74 27,9 39,29 24,43 -3,3 -31,-1 -62,-9 -39,-10 -79,-13 -125,-9 -67,6 -107,-3 -107,-25 0,-6 16,-25 35,-42 19,-17 35,-34 35,-39 0,-14 71,-102 100,-123 14,-11 35,-28 44,-37 10,-10 26,-18 37,-18 10,0 19,-4 19,-9 0,-5 36,-9 80,-9 44,0 80,4 80,9 0,5 11,9 25,9 14,0 25,4 25,8 0,5 15,20 33,33 17,13 34,33 35,44 2,11 8,23 14,26 15,10 4,107 -30,269 -17,80 -28,148 -24,152 4,4 26,10 50,14 l 42,7 v -33 c 0,-30 2,-32 27,-25 35,8 49,28 70,95 9,30 25,64 35,76 23,26 23,51 -1,64 -32,16 -59,12 -76,-14 z"
       id="path12"
       inkscape:connector-curvature="0" />
  </g>
</svg>
