<?xml version="1.0" encoding="UTF-8"?>
<svg width="48.9" height="32.2" version="1.1" viewBox="0 0 48.900002 32.200001" xmlns="http://www.w3.org/2000/svg" xmlns:cc="http://creativecommons.org/ns#" xmlns:dc="http://purl.org/dc/elements/1.1/" xmlns:rdf="http://www.w3.org/1999/02/22-rdf-syntax-ns#">
<metadata>
<rdf:RDF>
<cc:Work rdf:about="">
<dc:format>image/svg+xml</dc:format>
<dc:type rdf:resource="http://purl.org/dc/dcmitype/StillImage"/>
<dc:title/>
</cc:Work>
</rdf:RDF>
</metadata>
<style>.a{fill:#444;}.b{fill:#777;}</style>
<path d="m39.7 21.4c0 2-1.1 3-3.1 3.1h-24.4c-2 0-3.1-1-3.1-3.1 0-2 1.1-3 3.1-3.1h24.5c2 0.1 3 1.1 3 3.1zm-3 4.6h-24.5c-2 0-3.1 1-3.1 3.1 0 2 1.1 3 3.1 3.1h24.5c2 0 3.1-1 3.1-3.1-0.1-2.1-1.1-3.1-3.1-3.1zm7.6-16.9c-2 0-3.1 1-3.1 3v16.9c0 2 1.1 3 3.1 3.1 3-0.1 4.6-3.1 4.6-9.2v-7.6c0-4.1-1.6-6.1-4.6-6.2zm-39.7 0c-3 0.1-4.6 2.1-4.6 6.2v7.6c0 6.1 1.6 9.1 4.6 9.2 2 0 3.1-1 3.1-3.1v-16.8c-0.1-2-1.1-3-3.1-3.1zm39.7-1.5c0-5.1-2.7-7.5-7.6-7.6h-24.5c-5 0.1-7.6 2.6-7.6 7.6 3 0 4.6 1.6 4.6 4.6s1.6 4.6 4.6 4.6h21.4c3 0 4.6-1.6 4.6-4.6-0.1-3.1 1.6-4.5 4.5-4.6z" fill="#e42528"/>
</svg>
